<?xml version="1.0" standalone="no"?>
<!DOCTYPE svg PUBLIC "-//W3C//DTD SVG 20010904//EN"
 "http://www.w3.org/TR/2001/REC-SVG-20010904/DTD/svg10.dtd">
<svg version="1.0" xmlns="http://www.w3.org/2000/svg"
 width="200.000000pt" height="200.000000pt" viewBox="0 0 200.000000 200.000000"
 preserveAspectRatio="xMidYMid meet">
<metadata>
Created by potrace 1.11, written by Peter Selinger 2001-2013
</metadata>
<g transform="translate(0.000000,200.000000) scale(0.100000,-0.100000)"
fill="#000000" stroke="none">
<path d="M1040 1960 c-25 -12 -56 -31 -68 -43 -31 -28 -72 -109 -72 -140 0
-14 -6 -29 -12 -34 -11 -9 -141 -45 -143 -40 -10 27 -67 81 -107 101 -129 64
-291 8 -343 -118 -43 -104 -22 -201 60 -282 l54 -52 -12 -73 -13 -74 -47 -7
c-137 -19 -232 -154 -206 -293 18 -96 95 -174 195 -196 46 -10 63 -10 114 4
33 10 61 17 63 17 2 0 29 -29 61 -65 l58 -66 -16 -40 c-9 -21 -16 -63 -16 -92
1 -204 239 -319 403 -194 43 33 86 114 94 177 6 49 7 50 47 61 23 5 56 14 75
19 19 5 35 8 36 7 13 -30 66 -81 107 -101 188 -94 401 68 357 272 -12 60 -55
123 -105 154 -35 23 -35 24 -30 75 2 29 7 57 11 63 3 5 26 10 51 10 94 0 190
76 219 174 19 62 19 80 -1 145 -19 64 -69 122 -132 152 -61 30 -151 30 -208 1
l-41 -21 -62 63 -62 62 22 48 c31 71 24 166 -17 232 -44 72 -108 108 -198 112
-55 2 -81 -2 -116 -18z m232 -25 c71 -50 102 -104 106 -185 3 -56 0 -78 -18
-114 l-22 -46 64 -70 c35 -38 65 -70 68 -70 3 0 23 9 45 20 51 26 145 27 200
1 86 -39 138 -119 138 -211 0 -134 -101 -239 -229 -240 l-51 0 -11 -67 c-11
-60 -10 -69 5 -78 42 -26 98 -84 114 -120 24 -53 24 -147 0 -200 -21 -47 -76
-99 -128 -120 -88 -37 -209 -4 -274 74 l-35 42 -84 -21 -85 -21 -1 -47 c-5
-154 -153 -263 -301 -221 -65 18 -147 97 -163 159 -15 55 -7 143 15 177 17 25
17 26 -56 99 l-72 73 -31 -16 c-45 -24 -141 -21 -191 4 -87 46 -135 123 -135
216 0 97 48 173 135 213 27 13 66 24 86 24 l36 0 12 86 12 86 -47 41 c-60 53
-84 104 -84 182 0 167 148 272 313 223 39 -12 120 -78 128 -106 4 -10 14 -11
54 -2 121 27 125 28 125 61 0 67 59 151 133 189 34 17 56 20 114 18 61 -3 78
-8 115 -33z"/>
<path d="M1060 1919 c-28 -12 -67 -46 -81 -71 -8 -14 -2 -13 26 6 54 37 124
51 187 36 40 -10 63 -25 105 -65 30 -29 52 -46 49 -38 -4 8 -6 19 -6 23 0 20
-67 84 -105 101 -44 20 -134 24 -175 8z"/>
<path d="M490 1780 c-137 -24 -211 -182 -140 -298 105 -171 370 -97 370 103 0
125 -108 216 -230 195z"/>
<path d="M875 1648 c-113 -24 -115 -26 -115 -67 0 -123 -91 -219 -218 -230
l-67 -6 -7 -55 c-4 -30 -10 -67 -13 -82 -4 -24 1 -30 34 -47 45 -23 86 -69
106 -118 29 -68 13 -185 -30 -233 -13 -14 -7 -24 54 -84 l68 -68 44 23 c66 35
158 33 221 -4 26 -15 59 -43 74 -62 14 -19 31 -35 37 -35 6 0 46 9 89 21 l78
21 0 44 c0 25 6 59 14 78 32 77 122 145 192 146 41 0 49 12 61 87 l9 62 -39
32 c-79 64 -108 186 -67 278 l20 43 -66 73 -65 74 -42 -20 c-55 -25 -149 -25
-202 0 -42 20 -94 69 -116 112 -13 23 -17 25 -54 17z m59 -48 c36 -55 97 -97
161 -110 56 -12 87 -8 148 18 l38 16 62 -62 61 -61 -17 -48 c-22 -63 -22 -147
2 -199 10 -23 38 -59 61 -82 41 -39 42 -42 35 -88 -10 -69 -12 -72 -71 -84
-32 -7 -72 -25 -97 -43 -53 -40 -97 -124 -97 -183 0 -42 -1 -44 -40 -54 -22
-5 -59 -15 -82 -21 -36 -9 -42 -8 -51 8 -20 36 -81 83 -130 99 -59 19 -134 15
-190 -12 l-37 -18 -59 58 -59 58 25 49 c54 109 19 250 -80 313 l-48 31 6 62
c3 35 8 68 10 75 3 8 27 14 56 15 122 6 229 115 229 232 0 39 1 41 43 51 23 6
47 13 52 15 28 10 45 1 69 -35z"/>
<path d="M650 1250 l0 -30 65 0 65 0 0 -120 0 -120 55 0 55 0 0 120 0 119 67
3 c65 3 68 4 67 28 l0 25 -187 3 -187 2 0 -30z m357 -12 c-3 -7 -5 -2 -5 12 0
14 2 19 5 13 2 -7 2 -19 0 -25z m-127 -133 c0 -70 -4 -115 -10 -115 -6 0 -10
45 -10 115 0 70 4 115 10 115 6 0 10 -45 10 -115z"/>
<path d="M995 1177 c-3 -7 -4 -65 -3 -128 l3 -114 94 -3 c184 -6 251 29 251
128 0 61 -32 103 -89 117 -64 17 -250 17 -256 0z m325 -57 c5 -10 10 -37 10
-60 0 -49 -12 -75 -42 -91 l-21 -12 21 28 c16 20 22 42 22 75 0 33 -6 55 -22
75 l-21 28 21 -12 c12 -6 26 -20 32 -31z m-240 -60 c0 -40 -4 -70 -10 -70 -6
0 -10 30 -10 70 0 40 4 70 10 70 6 0 10 -30 10 -70z m142 53 c25 -22 24 -77
-3 -104 -16 -16 -30 -19 -72 -17 l-52 3 -3 68 -3 67 57 0 c39 0 63 -5 76 -17z"/>
<path d="M1700 1436 c0 -2 7 -20 15 -39 31 -74 13 -172 -43 -230 -37 -39 -77
-58 -137 -67 l-50 -7 37 -16 c55 -25 144 -22 193 6 59 33 98 103 98 175 0 31
-5 68 -13 82 -22 43 -100 118 -100 96z"/>
<path d="M295 1132 c-125 -60 -155 -208 -61 -310 72 -80 219 -82 289 -4 18 19
17 21 -8 46 -55 56 -69 138 -36 212 l19 42 -27 12 c-47 22 -132 23 -176 2z"/>
<path d="M649 548 c-7 -18 -13 -56 -13 -85 3 -207 300 -267 385 -78 19 41 26
140 10 149 -4 3 -17 -4 -27 -16 -76 -85 -248 -73 -311 23 -14 22 -27 39 -28
39 -1 0 -9 -15 -16 -32z"/>
<path d="M0 17 c0 -10 8 -17 18 -17 9 0 13 4 7 8 -5 4 -13 11 -17 16 -5 5 -8
2 -8 -7z"/>
</g>
</svg>
